<?xml version="1.0" encoding="UTF-8" standalone="no"?>
<!-- Created with Inkscape (http://www.inkscape.org/) -->

<svg
   xmlns:dc="http://purl.org/dc/elements/1.1/"
   xmlns:cc="http://creativecommons.org/ns#"
   xmlns:rdf="http://www.w3.org/1999/02/22-rdf-syntax-ns#"
   xmlns:svg="http://www.w3.org/2000/svg"
   xmlns="http://www.w3.org/2000/svg"
   xmlns:sodipodi="http://sodipodi.sourceforge.net/DTD/sodipodi-0.dtd"
   xmlns:inkscape="http://www.inkscape.org/namespaces/inkscape"
   width="155.78493"
   height="22.26432"
   id="svg3383"
   version="1.1"
   inkscape:version="0.48.5 r10040"
   sodipodi:docname="Documento nuevo 4">
  <defs
     id="defs3385">
    <clipPath
       clipPathUnits="userSpaceOnUse"
       id="clipPath3329">
      <path
         inkscape:connector-curvature="0"
         d="m 0,0 609.449,0 0,807.874 L 0,807.874 0,0 z"
         id="path3331" />
    </clipPath>
    <clipPath
       clipPathUnits="userSpaceOnUse"
       id="clipPath3313">
      <path
         inkscape:connector-curvature="0"
         d="m 0,0 609.449,0 0,807.874 L 0,807.874 0,0 z"
         id="path3315" />
    </clipPath>
    <clipPath
       clipPathUnits="userSpaceOnUse"
       id="clipPath3297">
      <path
         inkscape:connector-curvature="0"
         d="m 0,0 609.449,0 0,807.874 L 0,807.874 0,0 z"
         id="path3299" />
    </clipPath>
    <clipPath
       clipPathUnits="userSpaceOnUse"
       id="clipPath3269">
      <path
         inkscape:connector-curvature="0"
         d="m 0,0 609.449,0 0,807.874 L 0,807.874 0,0 z"
         id="path3271" />
    </clipPath>
  </defs>
  <sodipodi:namedview
     id="base"
     pagecolor="#ffffff"
     bordercolor="#666666"
     borderopacity="1.0"
     inkscape:pageopacity="0.0"
     inkscape:pageshadow="2"
     inkscape:zoom="1.4"
     inkscape:cx="259.68432"
     inkscape:cy="-119.98381"
     inkscape:document-units="px"
     inkscape:current-layer="layer1"
     showgrid="false"
     fit-margin-top="0"
     fit-margin-left="0"
     fit-margin-right="0"
     fit-margin-bottom="0"
     inkscape:window-width="1360"
     inkscape:window-height="746"
     inkscape:window-x="-8"
     inkscape:window-y="-8"
     inkscape:window-maximized="1" />
  <metadata
     id="metadata3388">
    <rdf:RDF>
      <cc:Work
         rdf:about="">
        <dc:format>image/svg+xml</dc:format>
        <dc:type
           rdf:resource="http://purl.org/dc/dcmitype/StillImage" />
        <dc:title></dc:title>
      </cc:Work>
    </rdf:RDF>
  </metadata>
  <g
     inkscape:label="Capa 1"
     inkscape:groupmode="layer"
     id="layer1"
     transform="translate(1295.8925,5.341406)">
    <g
       transform="matrix(1.25,0,0,-1.25,-1598.9057,55.898914)"
       id="g3265"
       style="fill:#000000">
      <g
         id="g3267"
         clip-path="url(#clipPath3269)"
         style="fill:#000000">
        <g
           id="g3273"
           transform="translate(258.8657,32.1498)"
           style="fill:#000000">
          <path
             inkscape:connector-curvature="0"
             d="m 0,0 c 0.636,0.449 1.109,0.411 1.676,0.976 0.525,0.522 -0.19,1.136 -0.724,1.532 -0.575,0.425 -0.223,0.5 0.505,0.642 2.058,0.402 4.81,1.074 5.955,1.392 2.86,0.792 5.386,2.817 5.364,5.143 -0.015,1.576 -1.131,2.938 -2.303,3.892 -1.172,0.955 -2.426,1.508 -2.822,1.622 -0.827,0.239 -0.391,-0.311 -0.391,-0.311 0,0 0.741,-0.264 2.303,-1.43 C 10.712,12.6 11.8,11.289 11.813,9.873 11.85,6.193 6.826,5.085 6.826,5.085 c 0,0 4.553,1.35 4.52,4.783 -0.014,1.465 -1.559,3.37 -3.652,4.753 -1.544,1.02 -3.334,1.589 -3.716,1.651 -1.077,0.174 -0.56,-0.351 -0.56,-0.351 0,0 1.414,-0.355 3.244,-1.605 C 8.159,13.293 9.581,11.651 9.599,9.729 9.624,7.267 7.152,5.983 6.068,5.44 4.405,4.607 2.613,4.195 2.613,4.195 c 0,0 2.051,0.54 3.677,1.574 C 7.774,6.714 9.072,8.308 9.058,9.723 9.032,12.354 6.267,14.45 3.953,15.656 2.728,16.295 1.618,16.669 1.136,16.773 0.594,16.891 -0.182,16.92 0.734,16.35 1.416,15.927 2.371,15.308 3.177,14.565 4.638,13.216 5.941,11.33 5.957,9.619 5.978,7.428 4.492,5.717 2.826,5.034 1.318,4.417 -0.171,4.246 -0.637,4.151 -1.337,4.009 -1.294,3.431 -1.182,3.297 -0.827,2.871 0.076,2.546 0.076,1.807 c 0,-1.275 -1.709,-1.422 -1.916,-1.422 -0.205,0 -1.915,0.147 -1.915,1.422 0,0.739 0.904,1.064 1.258,1.49 0.112,0.134 0.155,0.712 -0.545,0.854 -0.466,0.095 -1.955,0.266 -3.463,0.883 -1.667,0.683 -3.153,2.394 -3.131,4.585 0.016,1.711 1.319,3.597 2.781,4.946 0.805,0.743 1.76,1.362 2.442,1.785 0.917,0.57 0.141,0.541 -0.402,0.423 -0.482,-0.104 -1.592,-0.478 -2.818,-1.117 -2.313,-1.206 -5.078,-3.302 -5.104,-5.933 -0.014,-1.415 1.284,-3.009 2.768,-3.954 1.626,-1.034 3.677,-1.574 3.677,-1.574 0,0 -1.793,0.412 -3.454,1.245 -1.085,0.543 -3.557,1.827 -3.533,4.289 0.019,1.922 1.441,3.564 2.937,4.587 1.83,1.25 3.245,1.605 3.245,1.605 0,0 0.517,0.525 -0.56,0.351 -0.382,-0.062 -2.171,-0.631 -3.715,-1.651 -2.094,-1.383 -3.639,-3.288 -3.653,-4.753 -0.034,-3.433 4.52,-4.783 4.52,-4.783 0,0 -5.023,1.108 -4.988,4.788 0.014,1.416 1.102,2.727 2.251,3.585 1.562,1.166 2.303,1.43 2.303,1.43 0,0 0.436,0.55 -0.391,0.311 -0.396,-0.114 -1.65,-0.667 -2.822,-1.622 -1.172,-0.954 -2.287,-2.316 -2.303,-3.892 -0.022,-2.326 2.504,-4.351 5.364,-5.143 C -9.946,4.224 -7.194,3.552 -5.137,3.15 -4.408,3.008 -4.056,2.933 -4.631,2.508 -5.166,2.112 -5.88,1.498 -5.356,0.976 -4.788,0.411 -4.314,0.449 -3.679,0 c 0.636,-0.449 0.871,-0.969 1.848,-0.969 0.976,0 1.195,0.52 1.831,0.969"
             style="fill:#000000;fill-opacity:1;fill-rule:nonzero;stroke:none"
             id="path3275" />
        </g>
        <g
           id="g3277"
           transform="translate(288.0884,37.116)"
           style="fill:#000000">
          <path
             inkscape:connector-curvature="0"
             d="m 0,0 c 0,1.947 -1.072,2.865 -3.366,3.822 -1.666,0.694 -2.915,1.179 -2.915,2.376 0,0.399 0.104,1.632 2.421,1.632 1.926,0 3.305,-0.816 3.305,-0.816 l 0,2.078 c 0,0 -1.649,0.594 -3.488,0.594 -4.911,0 -5.015,-3.084 -5.015,-3.644 0,-2.273 1.805,-3.089 3.997,-3.894 0.565,-0.208 2.389,-0.688 2.389,-2.127 0,-0.555 -0.33,-1.804 -3.071,-1.804 -1.736,0 -3.172,0.72 -3.172,0.72 l 0,-2.093 c 0,0 1.193,-0.588 3.463,-0.588 C -1.163,-3.744 0,-1.545 0,0"
             style="fill:#000000;fill-opacity:1;fill-rule:nonzero;stroke:none"
             id="path3279" />
        </g>
        <g
           id="g3281"
           transform="translate(295.6362,36.6859)"
           style="fill:#000000">
          <path
             inkscape:connector-curvature="0"
             d="m 0,0 c 0,1.146 -0.569,1.963 -2.412,2.776 -1.336,0.59 -2.582,1.111 -2.582,2.013 0,0.328 0.17,1.259 1.828,1.259 1.58,0 2.671,-0.748 2.671,-0.748 l 0,1.901 c 0,0 -1.01,0.568 -3.031,0.568 -3.845,0 -3.97,-2.492 -3.97,-2.951 0,-1.643 1.128,-2.407 2.724,-3.1 0.726,-0.316 2.291,-0.729 2.291,-1.917 0,-0.455 -0.399,-1.362 -2.229,-1.362 -1.346,0 -2.601,0.631 -2.601,0.631 l 0,-1.881 c 0,0 0.834,-0.451 2.8,-0.451 C -1.188,-3.262 0,-1.562 0,0"
             style="fill:#000000;fill-opacity:1;fill-rule:nonzero;stroke:none"
             id="path3283" />
        </g>
      </g>
    </g>
    <g
       id="g3285"
       transform="matrix(1.25,0,0,-1.25,-1204.113,0.597664)"
       style="fill:#000000">
      <path
         inkscape:connector-curvature="0"
         d="m 0,0 -2.071,0 0,-7.594 -4.414,7.594 -2.92,0 0,-10.487 2.071,0 0,7.828 4.55,-7.828 2.784,0 L 0,0 z"
         style="fill:#000000;fill-opacity:1;fill-rule:nonzero;stroke:none"
         id="path3287" />
    </g>
    <g
       id="g3289"
       transform="matrix(1.25,0,0,-1.25,-1219.0248,13.706784)"
       style="fill:#000000">
      <path
         inkscape:connector-curvature="0"
         d="m 0,0 2.26,0 -0.908,2.36 -0.624,1.619 -2.507,6.508 -2.938,0 L -7.224,3.979 -7.847,2.36 -8.756,0 l 2.261,0 0.896,2.326 4.703,0 L 0,0 z m -3.247,8.432 1.714,-4.453 -3.43,0 1.716,4.453 z"
         style="fill:#000000;fill-opacity:1;fill-rule:nonzero;stroke:none"
         id="path3291" />
    </g>
    <g
       transform="matrix(1.25,0,0,-1.25,-1598.9057,55.898914)"
       id="g3293"
       style="fill:#000000">
      <g
         id="g3295"
         clip-path="url(#clipPath3297)"
         style="fill:#000000">
        <g
           id="g3301"
           transform="translate(321.8981,39.5855)"
           style="fill:#000000">
          <path
             inkscape:connector-curvature="0"
             d="m 0,0 0,-1.552 2.589,0 0,-2.66 c 0,0 -0.411,-0.272 -1.539,-0.272 -3.766,0 -4.025,3.076 -4.025,3.701 0,1.226 0.444,2.264 1.119,2.973 0.725,0.759 1.819,1.052 3.286,1.052 1.841,0 3.027,-0.646 3.027,-0.646 l 0,1.738 c 0,0 -1.533,0.528 -3.245,0.528 -2.035,0 -3.748,-0.568 -4.914,-1.612 -1.049,-0.939 -1.656,-2.598 -1.656,-3.994 0,-1.288 0.601,-5.43 6.315,-5.43 2.158,0 3.882,0.776 3.882,0.776 L 4.844,0 0,0 z"
             style="fill:#000000;fill-opacity:1;fill-rule:nonzero;stroke:none"
             id="path3303" />
        </g>
      </g>
    </g>
    <g
       id="g3305"
       transform="matrix(1.25,0,0,-1.25,-1153.7447,0.597664)"
       style="fill:#000000">
      <path
         inkscape:connector-curvature="0"
         d="m 0,0 -2.069,0 0,-7.594 -4.416,7.594 -2.918,0 0,-10.487 2.069,0 0,7.828 4.55,-7.828 2.784,0 L 0,0 z"
         style="fill:#000000;fill-opacity:1;fill-rule:nonzero;stroke:none"
         id="path3307" />
    </g>
    <g
       transform="matrix(1.25,0,0,-1.25,-1598.9057,55.898914)"
       id="g3309"
       style="fill:#000000">
      <g
         id="g3311"
         clip-path="url(#clipPath3313)"
         style="fill:#000000">
        <g
           id="g3317"
           transform="translate(362.1935,39.5855)"
           style="fill:#000000">
          <path
             inkscape:connector-curvature="0"
             d="m 0,0 0,-1.552 2.588,0 0,-2.66 c 0,0 -0.41,-0.272 -1.538,-0.272 -3.765,0 -4.025,3.076 -4.025,3.701 0,1.226 0.443,2.264 1.12,2.973 0.723,0.759 1.817,1.052 3.285,1.052 1.841,0 3.027,-0.646 3.027,-0.646 l 0,1.738 c 0,0 -1.533,0.528 -3.245,0.528 -2.034,0 -3.747,-0.568 -4.915,-1.612 -1.049,-0.939 -1.656,-2.598 -1.656,-3.994 0,-1.288 0.602,-5.43 6.316,-5.43 2.157,0 3.882,0.776 3.882,0.776 L 4.845,0 0,0 z"
             style="fill:#000000;fill-opacity:1;fill-rule:nonzero;stroke:none"
             id="path3319" />
        </g>
      </g>
    </g>
    <g
       id="g3321"
       transform="matrix(1.25,0,0,-1.25,-1182.5914,7.904284)"
       style="fill:#000000">
      <path
         inkscape:connector-curvature="0"
         d="m 0,0 4.385,8.147 -2.35,0 -3.259,-6.054 -3.539,6.054 -2.398,0 4.787,-8.189 -2.694,-5.005 2.351,0 1.567,2.911 L 0,0 z"
         style="fill:#000000;fill-opacity:1;fill-rule:nonzero;stroke:none"
         id="path3323" />
    </g>
    <g
       transform="matrix(1.25,0,0,-1.25,-1598.9057,55.898914)"
       id="g3325"
       style="fill:#000000">
      <g
         id="g3327"
         clip-path="url(#clipPath3329)"
         style="fill:#000000">
        <g
           id="g3333"
           transform="translate(343.949,43.4223)"
           style="fill:#000000">
          <path
             inkscape:connector-curvature="0"
             d="M 0,0 C -1.228,0.934 -2.642,1.059 -3.387,1.059 -4.129,1.059 -5.55,0.934 -6.779,0 c -1.116,-0.848 -2.232,-2.163 -2.232,-4.454 0,-2.103 0.816,-3.312 1.847,-4.275 1.219,-1.141 3.22,-1.312 3.777,-1.312 0.558,0 2.555,0.171 3.775,1.312 1.03,0.963 1.846,2.172 1.846,4.275 C 2.234,-2.163 1.116,-0.848 0,0 m -3.387,-8.333 c -0.124,0 -3.212,-0.208 -3.212,3.874 0,3.977 3.146,3.851 3.212,3.851 0.068,0 3.208,0.126 3.208,-3.851 0,-4.082 -3.084,-3.874 -3.208,-3.874"
             style="fill:#000000;fill-opacity:1;fill-rule:nonzero;stroke:none"
             id="path3335" />
        </g>
      </g>
    </g>
  </g>
</svg>
